<svg width="119" height="54" viewBox="0 0 119 54" fill="none" xmlns="http://www.w3.org/2000/svg">
<g clip-path="url(#clip0_42_838)">
<path d="M10.1661 48.2536C10.1611 48.2536 10.1611 48.261 10.1661 48.261C10.171 48.261 10.171 48.2536 10.1661 48.2536Z" fill="#534741"/>
<path d="M50.9763 18.8508L49.6401 18.9144C50.2652 21.0734 50.7351 23.7286 50.7351 26C50.7351 29.2024 50.1142 32.3094 48.8912 35.234C47.7102 38.0589 46.0174 40.5954 43.863 42.7734C41.7087 44.9515 39.1977 46.663 36.4057 47.857C33.5129 49.0934 30.4398 49.7212 27.2723 49.7212C24.1047 49.7212 21.0316 49.0934 18.1389 47.857C15.3447 46.663 12.8359 44.9515 10.6815 42.7734C8.52719 40.5954 6.83434 38.0568 5.65333 35.234C4.43037 32.3094 3.80945 29.2024 3.80945 26C3.80945 22.7976 4.43037 19.6906 5.65333 16.766C6.83434 13.9411 8.52719 11.4046 10.6815 9.22659C12.838 7.0464 15.3468 5.33704 18.141 4.14091C21.0337 2.90448 24.1068 2.27672 27.2744 2.27672C32.0991 2.27672 36.735 3.74644 40.6766 6.52469C44.2763 9.06116 47.0704 12.5138 48.8031 16.5497H47.5298H47.5088H45.2056H40.1627H39.2984V17.8286H40.1627H45.8202H47.5088H47.5298H50.6701L50.3365 16.959C48.5535 12.3102 45.4636 8.34009 41.4003 5.47701C37.2427 2.54818 32.3571 1 27.2723 1C23.9348 1 20.696 1.66169 17.648 2.96386C14.7028 4.22362 12.0597 6.0263 9.78791 8.32313C7.51819 10.6178 5.73514 13.2922 4.48911 16.2676C3.19902 19.3492 2.54663 22.6237 2.54663 25.9979C2.54663 29.3721 3.20111 32.6466 4.48911 35.7281C5.73514 38.7057 7.51819 41.3779 9.78791 43.6748C12.0576 45.9695 14.7028 47.7721 17.648 49.0319C20.696 50.3362 23.9348 50.9958 27.2723 50.9958C30.6097 50.9958 33.8486 50.3341 36.8965 49.0319C39.8417 47.7721 42.4848 45.9695 44.7566 43.6748C47.0264 41.3801 48.8094 38.7057 50.0554 35.7281C51.3455 32.6466 51.9979 29.3721 51.9979 25.9979C52 23.6077 51.635 21.1264 50.9763 18.8508Z" fill="#007163"/>
<path d="M38.9754 15.6081H34.5807C34.4045 15.6081 34.2598 15.7523 34.2598 15.9326V18.2867C34.2598 18.4648 34.4045 18.6111 34.5807 18.6111H38.9754C39.0929 18.6111 39.1957 18.5454 39.2523 18.45C39.2712 18.4181 39.2838 18.3842 39.2922 18.346C39.2964 18.3269 39.2984 18.3057 39.2984 18.2867V15.9326C39.2984 15.9241 39.2964 15.9156 39.2964 15.905C39.2817 15.7396 39.1453 15.6081 38.9754 15.6081Z" fill="#A67C52"/>
<path d="M44.7085 15.6653C39.8523 7.42603 29.5778 3.1823 19.6472 7.06973C12.9241 9.70164 7.1428 17.8688 6.85752 25.1517C6.24708 40.7311 21.7827 51.4326 36.0722 44.7797C42.1913 41.9293 46.4706 36.0993 47.3747 29.3487C47.8991 25.438 47.3894 21.8008 46.1349 18.5984H40.1607V18.872C40.1607 19.048 40.0201 19.1922 39.8439 19.1922H33.8046C33.6305 19.1922 33.4879 19.0501 33.4879 18.872V15.2475C33.4879 15.0715 33.6284 14.9273 33.8046 14.9273H39.8439C40.018 14.9273 40.1607 15.0694 40.1607 15.2475V15.6653H44.7085ZM16.6559 39.2444C13.7862 36.92 11.9843 33.6031 11.5815 29.9086L13.1129 29.739C13.4695 33.0198 15.07 35.9656 17.6187 38.0292C20.1675 40.0948 23.3581 41.0322 26.6032 40.6696L26.771 42.2178C23.1189 42.625 19.5256 41.5688 16.6559 39.2444ZM15.5987 28.9818L17.4362 28.7761C17.946 33.4567 22.1141 36.8352 26.7438 36.3198L26.9472 38.1776C21.3107 38.8075 16.2196 34.6804 15.5987 28.9818ZM33.6116 27.4697C33.3033 29.3424 32.1558 30.9775 30.5091 31.8895C25.5502 34.6401 19.8822 30.5746 20.8114 24.9332C21.1198 23.0606 22.2673 21.4254 23.914 20.5135C28.875 17.7628 34.543 21.8284 33.6116 27.4697Z" fill="#1A2535"/>
<path d="M2.78992 39.5222C2.77314 39.3971 2.75636 39.272 2.73958 39.1468C2.67245 38.9072 2.55288 38.7015 2.38087 38.5254C2.28647 38.4512 2.19207 38.3791 2.09768 38.3049C1.87952 38.1776 1.64667 38.114 1.39495 38.1119C1.20406 38.1055 1.02365 38.1458 0.857934 38.2328C0.685923 38.29 0.534888 38.3876 0.409026 38.5233C0.272675 38.6506 0.17618 38.8033 0.12164 38.9772C0.0335366 39.1447 -0.0063198 39.3271 0.00207102 39.5201C0.0188527 39.6452 0.0356343 39.7704 0.0524159 39.8955C0.119542 40.1351 0.239112 40.3408 0.411123 40.5169C0.50552 40.5911 0.599917 40.6632 0.694313 40.7374C0.912475 40.8647 1.14532 40.9283 1.39704 40.9304C1.59003 40.9368 1.76834 40.8965 1.93406 40.8095C2.10607 40.7523 2.2571 40.6547 2.38297 40.519C2.51932 40.3917 2.61581 40.239 2.67035 40.0651C2.75636 39.8976 2.79621 39.7173 2.78992 39.5222Z" fill="#007163"/>
</g>
<path d="M66.572 22.162C65.732 22.162 65.03 21.982 64.466 21.622C63.914 21.262 63.494 20.764 63.206 20.128C62.918 19.492 62.75 18.754 62.702 17.914L64.502 17.428C64.538 17.944 64.616 18.442 64.736 18.922C64.868 19.402 65.078 19.798 65.366 20.11C65.654 20.41 66.056 20.56 66.572 20.56C67.1 20.56 67.496 20.416 67.76 20.128C68.036 19.828 68.174 19.402 68.174 18.85C68.174 18.19 68.024 17.662 67.724 17.266C67.424 16.858 67.046 16.45 66.59 16.042L64.142 13.882C63.662 13.462 63.308 13.006 63.08 12.514C62.852 12.01 62.738 11.392 62.738 10.66C62.738 9.592 63.044 8.764 63.656 8.176C64.268 7.588 65.102 7.294 66.158 7.294C66.734 7.294 67.238 7.372 67.67 7.528C68.114 7.672 68.48 7.9 68.768 8.212C69.068 8.524 69.302 8.92 69.47 9.4C69.65 9.868 69.77 10.42 69.83 11.056L68.102 11.524C68.066 11.044 67.994 10.606 67.886 10.21C67.778 9.802 67.586 9.478 67.31 9.238C67.046 8.986 66.662 8.86 66.158 8.86C65.654 8.86 65.258 8.998 64.97 9.274C64.694 9.538 64.556 9.934 64.556 10.462C64.556 10.906 64.628 11.272 64.772 11.56C64.928 11.848 65.174 12.142 65.51 12.442L67.976 14.602C68.528 15.082 69.014 15.658 69.434 16.33C69.854 16.99 70.064 17.776 70.064 18.688C70.064 19.408 69.914 20.032 69.614 20.56C69.314 21.076 68.9 21.472 68.372 21.748C67.856 22.024 67.256 22.162 66.572 22.162ZM71.6418 22V7.42H77.2938V8.932H73.6758V13.756H76.6098V15.196H73.6758V20.542H77.3298V22H71.6418ZM82.4099 22.162C81.5699 22.162 80.8679 21.982 80.3039 21.622C79.7519 21.262 79.3319 20.764 79.0439 20.128C78.7559 19.492 78.5879 18.754 78.5399 17.914L80.3399 17.428C80.3759 17.944 80.4539 18.442 80.5739 18.922C80.7059 19.402 80.9159 19.798 81.2039 20.11C81.4919 20.41 81.8939 20.56 82.4099 20.56C82.9379 20.56 83.3339 20.416 83.5979 20.128C83.8739 19.828 84.0119 19.402 84.0119 18.85C84.0119 18.19 83.8619 17.662 83.5619 17.266C83.2619 16.858 82.8839 16.45 82.4279 16.042L79.9799 13.882C79.4999 13.462 79.1459 13.006 78.9179 12.514C78.6899 12.01 78.5759 11.392 78.5759 10.66C78.5759 9.592 78.8819 8.764 79.4939 8.176C80.1059 7.588 80.9399 7.294 81.9959 7.294C82.5719 7.294 83.0759 7.372 83.5079 7.528C83.9519 7.672 84.3179 7.9 84.6059 8.212C84.9059 8.524 85.1399 8.92 85.3079 9.4C85.4879 9.868 85.6079 10.42 85.6679 11.056L83.9399 11.524C83.9039 11.044 83.8319 10.606 83.7239 10.21C83.6159 9.802 83.4239 9.478 83.1479 9.238C82.8839 8.986 82.4999 8.86 81.9959 8.86C81.4919 8.86 81.0959 8.998 80.8079 9.274C80.5319 9.538 80.3939 9.934 80.3939 10.462C80.3939 10.906 80.4659 11.272 80.6099 11.56C80.7659 11.848 81.0119 12.142 81.3479 12.442L83.8139 14.602C84.3659 15.082 84.8519 15.658 85.2719 16.33C85.6919 16.99 85.9019 17.776 85.9019 18.688C85.9019 19.408 85.7519 20.032 85.4519 20.56C85.1519 21.076 84.7379 21.472 84.2099 21.748C83.6939 22.024 83.0939 22.162 82.4099 22.162ZM90.9177 22.162C90.0777 22.162 89.3757 21.982 88.8117 21.622C88.2597 21.262 87.8397 20.764 87.5517 20.128C87.2637 19.492 87.0957 18.754 87.0477 17.914L88.8477 17.428C88.8837 17.944 88.9617 18.442 89.0817 18.922C89.2137 19.402 89.4237 19.798 89.7117 20.11C89.9997 20.41 90.4017 20.56 90.9177 20.56C91.4457 20.56 91.8417 20.416 92.1057 20.128C92.3817 19.828 92.5197 19.402 92.5197 18.85C92.5197 18.19 92.3697 17.662 92.0697 17.266C91.7697 16.858 91.3917 16.45 90.9357 16.042L88.4877 13.882C88.0077 13.462 87.6537 13.006 87.4257 12.514C87.1977 12.01 87.0837 11.392 87.0837 10.66C87.0837 9.592 87.3897 8.764 88.0017 8.176C88.6137 7.588 89.4477 7.294 90.5037 7.294C91.0797 7.294 91.5837 7.372 92.0157 7.528C92.4597 7.672 92.8257 7.9 93.1137 8.212C93.4137 8.524 93.6477 8.92 93.8157 9.4C93.9957 9.868 94.1157 10.42 94.1757 11.056L92.4477 11.524C92.4117 11.044 92.3397 10.606 92.2317 10.21C92.1237 9.802 91.9317 9.478 91.6557 9.238C91.3917 8.986 91.0077 8.86 90.5037 8.86C89.9997 8.86 89.6037 8.998 89.3157 9.274C89.0397 9.538 88.9017 9.934 88.9017 10.462C88.9017 10.906 88.9737 11.272 89.1177 11.56C89.2737 11.848 89.5197 12.142 89.8557 12.442L92.3217 14.602C92.8737 15.082 93.3597 15.658 93.7797 16.33C94.1997 16.99 94.4097 17.776 94.4097 18.688C94.4097 19.408 94.2597 20.032 93.9597 20.56C93.6597 21.076 93.2457 21.472 92.7177 21.748C92.2017 22.024 91.6017 22.162 90.9177 22.162ZM96.0955 22V7.42H98.0935V22H96.0955ZM104.178 22.162C103.194 22.162 102.408 21.97 101.82 21.586C101.232 21.202 100.812 20.656 100.56 19.948C100.308 19.228 100.182 18.388 100.182 17.428V11.902C100.182 10.942 100.308 10.12 100.56 9.436C100.824 8.74 101.244 8.212 101.82 7.852C102.408 7.48 103.194 7.294 104.178 7.294C105.162 7.294 105.942 7.48 106.518 7.852C107.094 8.224 107.508 8.752 107.76 9.436C108.024 10.12 108.156 10.942 108.156 11.902V17.446C108.156 18.394 108.024 19.222 107.76 19.93C107.508 20.638 107.094 21.19 106.518 21.586C105.942 21.97 105.162 22.162 104.178 22.162ZM104.178 20.56C104.718 20.56 105.126 20.452 105.402 20.236C105.678 20.008 105.864 19.696 105.96 19.3C106.056 18.892 106.104 18.418 106.104 17.878V11.488C106.104 10.948 106.056 10.486 105.96 10.102C105.864 9.706 105.678 9.406 105.402 9.202C105.126 8.986 104.718 8.878 104.178 8.878C103.638 8.878 103.224 8.986 102.936 9.202C102.66 9.406 102.474 9.706 102.378 10.102C102.282 10.486 102.234 10.948 102.234 11.488V17.878C102.234 18.418 102.282 18.892 102.378 19.3C102.474 19.696 102.66 20.008 102.936 20.236C103.224 20.452 103.638 20.56 104.178 20.56ZM110.155 22V7.42H111.541L115.681 17.104V7.42H117.373V22H116.077L111.883 12.046V22H110.155ZM85.4104 49.144C85.0024 49.144 84.6424 49.03 84.3304 48.802C84.0184 48.562 83.7724 48.262 83.5924 47.902C83.4124 47.53 83.3224 47.14 83.3224 46.732C83.3224 46.084 83.4304 45.538 83.6464 45.094C83.8624 44.65 84.1564 44.278 84.5284 43.978C84.9124 43.666 85.3504 43.396 85.8424 43.168C86.3464 42.94 86.8744 42.718 87.4264 42.502V41.764C87.4264 41.344 87.4024 40.996 87.3544 40.72C87.3064 40.444 87.2044 40.24 87.0484 40.108C86.9044 39.964 86.6824 39.892 86.3824 39.892C86.1184 39.892 85.9024 39.952 85.7344 40.072C85.5784 40.192 85.4644 40.366 85.3924 40.594C85.3204 40.81 85.2844 41.068 85.2844 41.368V41.89L83.3764 41.818C83.4004 40.666 83.6644 39.82 84.1684 39.28C84.6724 38.728 85.4524 38.452 86.5084 38.452C87.5404 38.452 88.2724 38.734 88.7044 39.298C89.1364 39.862 89.3524 40.678 89.3524 41.746V46.498C89.3524 46.822 89.3584 47.134 89.3704 47.434C89.3944 47.734 89.4184 48.016 89.4424 48.28C89.4784 48.532 89.5084 48.772 89.5324 49H87.7684C87.7324 48.808 87.6844 48.568 87.6244 48.28C87.5764 47.98 87.5404 47.71 87.5164 47.47C87.3964 47.878 87.1624 48.262 86.8144 48.622C86.4784 48.97 86.0104 49.144 85.4104 49.144ZM86.1664 47.488C86.3584 47.488 86.5384 47.434 86.7064 47.326C86.8744 47.218 87.0244 47.098 87.1564 46.966C87.2884 46.822 87.3784 46.708 87.4264 46.624V43.672C87.1264 43.84 86.8444 44.008 86.5804 44.176C86.3164 44.344 86.0824 44.524 85.8784 44.716C85.6864 44.896 85.5304 45.106 85.4104 45.346C85.3024 45.574 85.2484 45.838 85.2484 46.138C85.2484 46.558 85.3264 46.888 85.4824 47.128C85.6384 47.368 85.8664 47.488 86.1664 47.488ZM91.2565 49V38.596H93.1825V40.072C93.5665 39.436 93.9505 39.01 94.3345 38.794C94.7185 38.578 95.1025 38.47 95.4865 38.47C95.5345 38.47 95.5765 38.47 95.6125 38.47C95.6605 38.47 95.7205 38.476 95.7925 38.488V40.612C95.6485 40.552 95.4805 40.504 95.2885 40.468C95.1085 40.42 94.9225 40.396 94.7305 40.396C94.4305 40.396 94.1545 40.468 93.9025 40.612C93.6625 40.744 93.4225 41.008 93.1825 41.404V49H91.2565ZM99.7577 49.144C99.2177 49.144 98.7797 49.042 98.4437 48.838C98.1197 48.634 97.8797 48.346 97.7237 47.974C97.5797 47.602 97.5077 47.164 97.5077 46.66V39.874H96.4097V38.596H97.5077V35.554H99.4337V38.596H101.108V39.874H99.4337V46.534C99.4337 46.942 99.4997 47.236 99.6317 47.416C99.7637 47.584 100.016 47.668 100.388 47.668C100.484 47.668 100.592 47.662 100.712 47.65C100.844 47.638 100.97 47.626 101.09 47.614V49.036C100.85 49.072 100.628 49.096 100.424 49.108C100.22 49.132 99.9977 49.144 99.7577 49.144ZM102.649 49V38.596H104.575V49H102.649ZM102.649 37.048V35.032H104.575V37.048H102.649ZM109.048 49.144C108.196 49.144 107.512 48.88 106.996 48.352C106.48 47.812 106.186 47.104 106.114 46.228L107.716 45.742C107.812 46.402 107.974 46.9 108.202 47.236C108.43 47.56 108.766 47.722 109.21 47.722C109.558 47.722 109.822 47.626 110.002 47.434C110.182 47.23 110.272 46.96 110.272 46.624C110.272 46.324 110.206 46.054 110.074 45.814C109.942 45.574 109.726 45.328 109.426 45.076L107.644 43.546C107.284 43.234 106.978 42.886 106.726 42.502C106.486 42.118 106.366 41.62 106.366 41.008C106.366 40.456 106.474 39.994 106.69 39.622C106.918 39.238 107.23 38.95 107.626 38.758C108.034 38.554 108.508 38.452 109.048 38.452C109.876 38.452 110.506 38.722 110.938 39.262C111.382 39.79 111.634 40.432 111.694 41.188L110.398 41.674C110.35 41.314 110.278 41.002 110.182 40.738C110.086 40.462 109.954 40.252 109.786 40.108C109.618 39.952 109.396 39.874 109.12 39.874C108.808 39.874 108.556 39.982 108.364 40.198C108.184 40.402 108.094 40.648 108.094 40.936C108.094 41.116 108.13 41.296 108.202 41.476C108.286 41.644 108.424 41.812 108.616 41.98L110.452 43.672C110.704 43.9 110.938 44.146 111.154 44.41C111.382 44.674 111.568 44.974 111.712 45.31C111.856 45.646 111.928 46.036 111.928 46.48C111.928 47.068 111.808 47.56 111.568 47.956C111.328 48.352 110.992 48.652 110.56 48.856C110.128 49.048 109.624 49.144 109.048 49.144ZM116.14 49.144C115.6 49.144 115.162 49.042 114.826 48.838C114.502 48.634 114.262 48.346 114.106 47.974C113.962 47.602 113.89 47.164 113.89 46.66V39.874H112.792V38.596H113.89V35.554H115.816V38.596H117.49V39.874H115.816V46.534C115.816 46.942 115.882 47.236 116.014 47.416C116.146 47.584 116.398 47.668 116.77 47.668C116.866 47.668 116.974 47.662 117.094 47.65C117.226 47.638 117.352 47.626 117.472 47.614V49.036C117.232 49.072 117.01 49.096 116.806 49.108C116.602 49.132 116.38 49.144 116.14 49.144Z" fill="black"/>
<defs>
<clipPath id="clip0_42_838">
<rect width="52" height="50" fill="white" transform="translate(0 1)"/>
</clipPath>
</defs>
</svg>
