<svg width="20" height="20" viewBox="0 0 20 20" fill="none" xmlns="http://www.w3.org/2000/svg">
<path d="M19.7256 18.989L15.2097 14.4538C16.5957 12.8666 17.3604 10.8582 17.3604 8.72736C17.3604 6.40146 16.4584 4.215 14.8209 2.57049C13.1834 0.925969 11.0062 0.0200958 8.69023 0.0200958C6.37422 0.0200958 4.19708 0.925969 2.55956 2.57049C0.922038 4.215 0.0200195 6.40146 0.0200195 8.72736C0.0200195 11.0533 0.922038 13.2397 2.55956 14.8842C4.19708 16.5288 6.37422 17.4346 8.69023 17.4346C10.812 17.4346 12.8118 16.6666 14.3923 15.2747L18.9082 19.8098C19.0211 19.9232 19.169 19.9799 19.3169 19.9799C19.4648 19.9799 19.6127 19.9232 19.7256 19.8098C19.9513 19.5831 19.9513 19.2158 19.7256 18.989ZM3.3769 14.0634C1.95783 12.638 1.17605 10.7429 1.17605 8.72736C1.17605 6.71182 1.95783 4.81674 3.3769 3.39133C4.79626 1.96619 6.68327 1.18106 8.69023 1.18106C10.6972 1.18106 12.5842 1.96619 14.0036 3.39133C15.4226 4.81674 16.2044 6.71182 16.2044 8.72736C16.2044 10.7429 15.4226 12.638 14.0036 14.0634C12.5842 15.4885 10.6972 16.2737 8.69023 16.2737C6.68327 16.2737 4.79626 15.4885 3.3769 14.0634Z" fill="black"/>
</svg>
