<svg width="18" height="18" viewBox="0 0 18 18" fill="none" xmlns="http://www.w3.org/2000/svg">
<path d="M0.434431 17.5656C0.492477 17.6237 0.561407 17.6698 0.637281 17.7013C0.713154 17.7327 0.794484 17.7489 0.876618 17.7489C0.958753 17.7489 1.04008 17.7327 1.11596 17.7013C1.19183 17.6698 1.26076 17.6237 1.31881 17.5656L9.00006 9.88438L16.6844 17.5656C16.8017 17.6829 16.9608 17.7488 17.1266 17.7488C17.2925 17.7488 17.4515 17.6829 17.5688 17.5656C17.6861 17.4484 17.752 17.2893 17.752 17.1234C17.752 16.9576 17.6861 16.7985 17.5688 16.6813L9.88443 9L17.5657 1.31563C17.683 1.19835 17.7488 1.03929 17.7488 0.87344C17.7488 0.707588 17.683 0.548528 17.5657 0.431253C17.4484 0.313977 17.2893 0.248093 17.1235 0.248093C16.9576 0.248093 16.7986 0.313977 16.6813 0.431253L9.00006 8.11563L1.31568 0.434378C1.19612 0.331986 1.04232 0.278482 0.885023 0.284558C0.727725 0.290634 0.578513 0.355842 0.467204 0.467151C0.355895 0.57846 0.290687 0.727672 0.284611 0.884969C0.278536 1.04227 0.332039 1.19606 0.434431 1.31563L8.11568 9L0.434431 16.6844C0.318024 16.8015 0.252686 16.9599 0.252686 17.125C0.252686 17.2901 0.318024 17.4485 0.434431 17.5656Z" fill="black"/>
</svg>
