<svg width="320" height="374" viewBox="0 0 320 374" fill="none" xmlns="http://www.w3.org/2000/svg">
<path opacity="0.2" d="M-428.904 133.583C-378.091 83.9282 -317.964 33.3867 -246.694 32.5454C-197.366 31.9612 -148.895 57.9029 -122.982 98.7558C-102.918 130.388 -96.1787 169.019 -75.3434 200.161C-49.2295 239.207 -0.858099 262.718 46.9539 259.598C101.903 256.012 151.65 220.518 206.674 219.616C248.167 218.934 287.252 238.265 320.233 262.554C353.214 286.842 381.876 316.375 414.804 340.741C441.537 360.529 473.916 377.394 507.307 372.534C539.997 367.774 567.046 342.189 580.131 312.316C593.218 282.454 594.22 248.896 590.908 216.742C588.056 189.015 582.245 160.491 590.343 133.638C599.64 102.846 625.848 79.5807 653.621 62.4534C681.405 45.3226 711.941 32.4972 738.08 13.0298C771.475 -11.8375 796.582 -47.2979 808.617 -86.5891" stroke="#007163" stroke-miterlimit="10"/>
</svg>
